<svg width="24" height="24" viewBox="0 0 24 24" fill="none" xmlns="http://www.w3.org/2000/svg">
<path d="M12 0C14.1771 0 16.1849 0.549894 18.0234 1.64968C19.862 2.74947 21.3177 4.24166 22.3906 6.12625C23.4635 8.01083 24 10.0689 24 12.3005C24 14.9806 23.237 17.3911 21.7109 19.5319C20.1849 21.6728 18.2135 23.1543 15.7969 23.9764C15.5156 24.0298 15.3073 23.9925 15.1719 23.8643C15.0365 23.7362 14.9688 23.576 14.9688 23.3838C14.9688 23.3518 14.9714 22.9434 14.9766 22.1586C14.9818 21.3738 14.9844 20.6557 14.9844 20.0044C14.9844 18.9687 14.7135 18.2106 14.1719 17.7301C14.7656 17.666 15.2995 17.5699 15.7734 17.4418C16.2474 17.3137 16.737 17.1054 17.2422 16.8171C17.7474 16.5289 18.1693 16.1738 18.5078 15.7521C18.8464 15.3303 19.1224 14.7697 19.3359 14.0703C19.5495 13.371 19.6562 12.5675 19.6562 11.6599C19.6562 10.3893 19.2448 9.28947 18.4219 8.36052C18.8073 7.38887 18.7656 6.29976 18.2969 5.09319C18.0052 4.9971 17.5833 5.05582 17.0312 5.26937C16.4792 5.48292 16 5.71783 15.5938 5.97409L15 6.35848C14.0312 6.08087 13.0312 5.94206 12 5.94206C10.9688 5.94206 9.96875 6.08087 9 6.35848C8.83333 6.24103 8.61198 6.09688 8.33594 5.92604C8.0599 5.7552 7.625 5.54966 7.03125 5.30941C6.4375 5.06917 5.99479 4.9971 5.70312 5.09319C5.23438 6.29976 5.19271 7.38887 5.57812 8.36052C4.75521 9.28947 4.34375 10.3893 4.34375 11.6599C4.34375 12.5675 4.45052 13.3683 4.66406 14.0623C4.8776 14.7564 5.15104 15.317 5.48438 15.7441C5.81771 16.1712 6.23698 16.5289 6.74219 16.8171C7.2474 17.1054 7.73698 17.3137 8.21094 17.4418C8.6849 17.5699 9.21875 17.666 9.8125 17.7301C9.40625 18.1145 9.15104 18.6644 9.04688 19.3798C8.82812 19.4865 8.59375 19.5666 8.34375 19.62C8.09375 19.6734 7.79688 19.7001 7.45312 19.7001C7.10938 19.7001 6.76823 19.5853 6.42969 19.3557C6.09115 19.1262 5.80208 18.7925 5.5625 18.3547C5.36458 18.013 5.11198 17.7354 4.80469 17.5219C4.4974 17.3083 4.23958 17.1802 4.03125 17.1375L3.71875 17.0894C3.5 17.0894 3.34896 17.1134 3.26562 17.1615C3.18229 17.2095 3.15625 17.2709 3.1875 17.3457C3.21875 17.4204 3.26562 17.4952 3.32812 17.5699C3.39062 17.6447 3.45833 17.7087 3.53125 17.7621L3.64062 17.8422C3.86979 17.949 4.09635 18.1518 4.32031 18.4508C4.54427 18.7498 4.70833 19.0221 4.8125 19.2676L4.96875 19.636C5.10417 20.0418 5.33333 20.3701 5.65625 20.621C5.97917 20.8719 6.32812 21.0321 6.70312 21.1015C7.07812 21.1709 7.4401 21.2083 7.78906 21.2136C8.13802 21.219 8.42708 21.2003 8.65625 21.1576L9.01562 21.0935C9.01562 21.4993 9.01823 21.9717 9.02344 22.511C9.02865 23.0502 9.03125 23.3411 9.03125 23.3838C9.03125 23.576 8.96354 23.7362 8.82812 23.8643C8.69271 23.9925 8.48438 24.0298 8.20312 23.9764C5.78646 23.1543 3.8151 21.6728 2.28906 19.5319C0.763021 17.3911 0 14.9806 0 12.3005C0 10.0689 0.536458 8.01083 1.60938 6.12625C2.68229 4.24166 4.13802 2.74947 5.97656 1.64968C7.8151 0.549894 9.82292 0 12 0ZM4.54688 17.666C4.57812 17.5913 4.54167 17.5272 4.4375 17.4738C4.33333 17.4418 4.26562 17.4525 4.23438 17.5058C4.20312 17.5806 4.23958 17.6447 4.34375 17.698C4.4375 17.7621 4.50521 17.7514 4.54688 17.666ZM5.03125 18.2106C5.10417 18.1572 5.09375 18.0718 5 17.9543C4.89583 17.8582 4.8125 17.8422 4.75 17.9063C4.67708 17.9596 4.6875 18.0451 4.78125 18.1625C4.88542 18.2693 4.96875 18.2853 5.03125 18.2106ZM5.5 18.9313C5.59375 18.8566 5.59375 18.7551 5.5 18.627C5.41667 18.4882 5.32812 18.4562 5.23438 18.5309C5.14062 18.5843 5.14062 18.6804 5.23438 18.8192C5.32812 18.958 5.41667 18.9954 5.5 18.9313ZM6.15625 19.604C6.23958 19.5186 6.21875 19.4171 6.09375 19.2997C5.96875 19.1715 5.86458 19.1555 5.78125 19.2516C5.6875 19.337 5.70833 19.4385 5.84375 19.5559C5.96875 19.6841 6.07292 19.7001 6.15625 19.604ZM7.04688 20.0044C7.07812 19.8869 7.01042 19.8015 6.84375 19.7481C6.6875 19.7054 6.58854 19.7428 6.54688 19.8603C6.50521 19.9777 6.57292 20.0578 6.75 20.1005C6.90625 20.1646 7.00521 20.1325 7.04688 20.0044ZM8.03125 20.0845C8.03125 19.9457 7.94271 19.8869 7.76562 19.9083C7.59896 19.9083 7.51562 19.967 7.51562 20.0845C7.51562 20.2233 7.60417 20.282 7.78125 20.2607C7.94792 20.2607 8.03125 20.2019 8.03125 20.0845ZM8.9375 19.9243C8.91667 19.8069 8.82292 19.7588 8.65625 19.7802C8.48958 19.8122 8.41667 19.8923 8.4375 20.0204C8.45833 20.1485 8.55208 20.1913 8.71875 20.1485C8.88542 20.1058 8.95833 20.0311 8.9375 19.9243Z" fill="#E63136" fill-opacity="0.8"/>
</svg>
