<svg width="24" height="24" viewBox="0 0 24 24" fill="none" xmlns="http://www.w3.org/2000/svg">
<path d="M5.45312 7.79837V24H0.296875V7.79837H5.45312ZM5.78125 2.79564C5.79167 3.59128 5.52865 4.25613 4.99219 4.79019C4.45573 5.32425 3.75 5.59128 2.875 5.59128H2.84375C1.98958 5.59128 1.30208 5.32425 0.78125 4.79019C0.260417 4.25613 0 3.59128 0 2.79564C0 1.9891 0.268229 1.32153 0.804688 0.792916C1.34115 0.264305 2.04167 0 2.90625 0C3.77083 0 4.46354 0.264305 4.98438 0.792916C5.50521 1.32153 5.77083 1.9891 5.78125 2.79564ZM24 14.7139V24H18.8594V15.3351C18.8594 14.1907 18.6484 13.2943 18.2266 12.6458C17.8047 11.9973 17.1458 11.673 16.25 11.673C15.5938 11.673 15.0443 11.861 14.6016 12.2371C14.1589 12.6131 13.8281 13.079 13.6094 13.6349C13.4948 13.9619 13.4375 14.4033 13.4375 14.9591V24H8.29688C8.31771 19.6512 8.32812 16.1253 8.32812 13.4223C8.32812 10.7193 8.32292 9.10627 8.3125 8.58311L8.29688 7.79837H13.4375V10.1526H13.4062C13.6146 9.80381 13.8281 9.49864 14.0469 9.23706C14.2656 8.97548 14.5599 8.6921 14.9297 8.38692C15.2995 8.08174 15.7526 7.84469 16.2891 7.67575C16.8255 7.50681 17.4219 7.42234 18.0781 7.42234C19.8594 7.42234 21.2917 8.04087 22.375 9.27793C23.4583 10.515 24 12.327 24 14.7139Z" fill="#E63136" fill-opacity="0.8"/>
</svg>
