<svg width="185" height="28" viewBox="0 0 185 28" fill="none" xmlns="http://www.w3.org/2000/svg">
<path d="M4.83203 28H0.828125V-0.0078125H2.82031C4.1224 -0.0078125 5.5026 0.161458 6.96094 0.5C8.43229 0.838542 9.92969 1.32682 11.4531 1.96484C12.9766 2.60286 14.4935 3.3776 16.0039 4.28906C17.5273 5.1875 18.9987 6.20964 20.418 7.35547C21.8372 8.5013 23.1719 9.7513 24.4219 11.1055C25.6719 12.4466 26.7917 13.8789 27.7812 15.4023V-0.0078125H31.7852V28H27.7812C27.7812 25.9427 27.4232 23.9635 26.707 22.0625C25.9909 20.1484 25.0339 18.3451 23.8359 16.6523C22.638 14.9596 21.2578 13.4036 19.6953 11.9844C18.1328 10.5521 16.4987 9.29557 14.793 8.21484C13.1003 7.13411 11.3945 6.2487 9.67578 5.55859C7.95703 4.85547 6.34245 4.38672 4.83203 4.15234V28Z" fill="#E63136"/>
<path d="M67.4883 28H38.5234V-0.0078125H67.4883V3.99609H42.5273V23.9961H67.4883V28ZM64.0898 16.0078H44.5195V12.0039H64.0898V16.0078ZM104.793 28H99.3828L90.9844 19.9922H78.7188V16.0469H94.793C95.6263 16.0469 96.4076 15.8906 97.1367 15.5781C97.8659 15.2526 98.4974 14.8164 99.0312 14.2695C99.5781 13.7227 100.008 13.0846 100.32 12.3555C100.633 11.6133 100.789 10.8255 100.789 9.99219C100.789 9.15885 100.633 8.3776 100.32 7.64844C100.008 6.91927 99.5781 6.28776 99.0312 5.75391C98.4974 5.20703 97.8659 4.77734 97.1367 4.46484C96.4076 4.15234 95.6263 3.99609 94.793 3.99609H76.4727V28H72.4688V-0.0078125H94.793C96.1732 -0.0078125 97.4688 0.259115 98.6797 0.792969C99.8906 1.3138 100.945 2.02995 101.844 2.94141C102.755 3.83984 103.471 4.89453 103.992 6.10547C104.526 7.31641 104.793 8.61198 104.793 9.99219C104.793 11.2422 104.578 12.4271 104.148 13.5469C103.719 14.6536 103.126 15.6497 102.371 16.5352C101.616 17.4076 100.724 18.1367 99.6953 18.7227C98.6797 19.2956 97.5794 19.6797 96.3945 19.875L104.793 28ZM138.895 28H109.93V-0.0078125H138.895V3.99609H113.934V23.9961H138.895V28ZM135.496 16.0078H115.926V12.0039H135.496V16.0078ZM174.793 19.9922C174.793 21.112 174.585 22.1602 174.168 23.1367C173.751 24.1003 173.178 24.9466 172.449 25.6758C171.733 26.3919 170.887 26.9583 169.91 27.375C168.947 27.7917 167.911 28 166.805 28H142.469V23.9961H166.805C167.365 23.9961 167.885 23.8919 168.367 23.6836C168.849 23.4753 169.266 23.1888 169.617 22.8242C169.982 22.4596 170.268 22.0365 170.477 21.5547C170.685 21.0599 170.789 20.5391 170.789 19.9922C170.789 19.4453 170.685 18.931 170.477 18.4492C170.268 17.9674 169.982 17.5443 169.617 17.1797C169.266 16.8151 168.849 16.5286 168.367 16.3203C167.885 16.112 167.365 16.0078 166.805 16.0078H150.477C149.383 16.0078 148.348 15.7995 147.371 15.3828C146.395 14.9661 145.542 14.3997 144.812 13.6836C144.096 12.9544 143.523 12.1016 143.094 11.125C142.677 10.1484 142.469 9.10677 142.469 8C142.469 6.90625 142.677 5.87109 143.094 4.89453C143.523 3.91797 144.096 3.07161 144.812 2.35547C145.542 1.6263 146.395 1.05339 147.371 0.636719C148.348 0.207031 149.383 -0.0078125 150.477 -0.0078125H172.801V3.99609H150.477C149.93 3.99609 149.409 4.10026 148.914 4.30859C148.432 4.51693 148.009 4.80339 147.645 5.16797C147.28 5.53255 146.993 5.96224 146.785 6.45703C146.577 6.9388 146.473 7.45312 146.473 8C146.473 8.54688 146.577 9.06771 146.785 9.5625C146.993 10.0443 147.28 10.4674 147.645 10.832C148.009 11.1966 148.432 11.4831 148.914 11.6914C149.409 11.8997 149.93 12.0039 150.477 12.0039H166.805C167.911 12.0039 168.947 12.2188 169.91 12.6484C170.887 13.0651 171.733 13.638 172.449 14.3672C173.178 15.0833 173.751 15.9297 174.168 16.9062C174.585 17.8698 174.793 18.8984 174.793 19.9922ZM184.344 24.9922C184.344 25.4089 184.259 25.7995 184.09 26.1641C183.934 26.5286 183.719 26.8477 183.445 27.1211C183.172 27.3945 182.853 27.6094 182.488 27.7656C182.124 27.9219 181.74 28 181.336 28C180.919 28 180.529 27.9219 180.164 27.7656C179.812 27.6094 179.5 27.3945 179.227 27.1211C178.953 26.8477 178.738 26.5286 178.582 26.1641C178.426 25.7995 178.348 25.4089 178.348 24.9922C178.348 24.5885 178.426 24.2044 178.582 23.8398C178.738 23.4753 178.953 23.1562 179.227 22.8828C179.5 22.6094 179.812 22.3945 180.164 22.2383C180.529 22.082 180.919 22.0039 181.336 22.0039C181.74 22.0039 182.124 22.082 182.488 22.2383C182.853 22.3945 183.172 22.6094 183.445 22.8828C183.719 23.1562 183.934 23.4753 184.09 23.8398C184.259 24.2044 184.344 24.5885 184.344 24.9922Z" fill="white"/>
</svg>
