<svg width="24" height="24" viewBox="0 0 24 24" fill="none" xmlns="http://www.w3.org/2000/svg">
<path d="M9.52246 16.419L16.0042 11.6571L9.52246 6.8381V16.419ZM12 0C13.4999 0 14.9485 0.0285714 16.3457 0.0857143C17.743 0.142857 18.7675 0.203175 19.4192 0.266667L20.3969 0.342857C20.4058 0.342857 20.4817 0.352381 20.6245 0.371429C20.7674 0.390476 20.87 0.409524 20.9325 0.428571C20.995 0.447619 21.0999 0.476191 21.2473 0.514286C21.3946 0.552381 21.5218 0.603175 21.6289 0.666667C21.7361 0.730159 21.8611 0.812698 22.0039 0.914286C22.1468 1.01587 22.2851 1.13968 22.4191 1.28571C22.553 1.43175 22.6824 1.6 22.8074 1.79048C22.861 1.86667 22.9302 1.98413 23.015 2.14286C23.0998 2.30159 23.2293 2.67302 23.4034 3.25714C23.5775 3.84127 23.6958 4.48254 23.7583 5.18095C23.8297 5.99365 23.8855 6.86032 23.9257 7.78095C23.9659 8.70159 23.9904 9.42222 23.9993 9.94286V13.2952C24.0083 15.1365 23.9279 16.9778 23.7583 18.819C23.6958 19.5175 23.5842 20.1492 23.4235 20.7143C23.2628 21.2794 23.1199 21.6698 22.9949 21.8857L22.8074 22.2095C22.6824 22.4 22.553 22.5683 22.4191 22.7143C22.2851 22.8603 22.1468 22.981 22.0039 23.0762C21.8611 23.1714 21.7361 23.2508 21.6289 23.3143C21.5218 23.3778 21.3946 23.4286 21.2473 23.4667C21.0999 23.5048 20.9928 23.5333 20.9258 23.5524C20.8589 23.5714 20.7562 23.5905 20.6178 23.6095C20.4794 23.6286 20.4058 23.6381 20.3969 23.6381C18.1559 23.8794 15.357 24 12 24C10.1519 23.9746 8.54707 23.9333 7.18554 23.8762C5.82401 23.819 4.92897 23.7714 4.50042 23.7333L3.84421 23.6571L3.36209 23.581C3.04068 23.5175 2.79739 23.454 2.63222 23.3905C2.46705 23.327 2.23938 23.1937 1.94922 22.9905C1.65906 22.7873 1.40684 22.527 1.19257 22.2095C1.139 22.1333 1.06981 22.0159 0.98499 21.8571C0.900173 21.6984 0.770716 21.327 0.596619 20.7429C0.422521 20.1587 0.304224 19.5175 0.241728 18.819C0.170303 18.0063 0.114503 17.1397 0.0743262 16.219C0.0341499 15.2984 0.00959768 14.5778 0.000669606 14.0571V10.7048C-0.00825847 8.86349 0.0720942 7.02222 0.241728 5.18095C0.304224 4.48254 0.415825 3.85079 0.57653 3.28571C0.737236 2.72063 0.880085 2.33016 1.00508 2.11429L1.19257 1.79048C1.31756 1.6 1.44702 1.43175 1.58094 1.28571C1.71486 1.13968 1.85324 1.01587 1.99609 0.914286C2.13894 0.812698 2.26394 0.730159 2.37107 0.666667C2.47821 0.603175 2.60544 0.552381 2.75275 0.514286C2.90006 0.476191 3.00497 0.447619 3.06746 0.428571C3.12996 0.409524 3.23263 0.390476 3.37548 0.371429C3.51833 0.352381 3.59422 0.342857 3.60315 0.342857C5.84409 0.114286 8.64304 0 12 0Z" fill="#E63136" fill-opacity="0.8"/>
</svg>
